<?xml version="1.0" standalone="no"?>
<!DOCTYPE svg PUBLIC "-//W3C//DTD SVG 20010904//EN"
 "http://www.w3.org/TR/2001/REC-SVG-20010904/DTD/svg10.dtd">
<svg version="1.0" xmlns="http://www.w3.org/2000/svg"
 width="400.000000pt" height="400.000000pt" viewBox="0 0 400.000000 400.000000"
 preserveAspectRatio="xMidYMid meet">
<metadata>
Created by potrace 1.11, written by Peter Selinger 2001-2013
</metadata>
<g transform="translate(0.000000,400.000000) scale(0.100000,-0.100000)"
fill="#000000" stroke="none">
<path d="M1514 3513 c4 -7 2 -14 -3 -14 -6 -1 -15 -3 -21 -4 -5 -1 -15 -3 -21
-4 -5 0 -7 -6 -3 -13 4 -7 3 -8 -4 -4 -6 4 -9 13 -6 21 6 15 -20 15 -33 0 -4
-4 -2 -5 6 0 9 5 12 4 8 -3 -4 -5 -17 -8 -30 -5 -18 4 -19 3 -7 -6 9 -7 10
-11 3 -11 -6 0 -15 5 -18 10 -4 6 -20 9 -36 6 -16 -2 -27 -1 -24 3 2 4 -2 8
-10 8 -8 0 -12 -4 -9 -8 2 -4 0 -10 -6 -14 -5 -3 -10 2 -11 12 0 11 -3 13 -6
5 -4 -10 -8 -10 -19 -1 -11 9 -14 8 -15 -7 0 -11 -3 -14 -6 -6 -7 19 -26 14
-19 -5 6 -17 5 -17 -8 0 -10 14 -15 15 -19 5 -4 -10 -6 -10 -6 0 -1 6 -6 12
-12 12 -5 0 -7 -5 -3 -11 5 -8 -1 -10 -20 -7 -19 4 -26 1 -27 -11 0 -12 -2
-11 -9 4 -5 11 -9 14 -9 6 -1 -11 -4 -11 -18 0 -12 10 -15 11 -9 1 6 -9 1 -11
-18 -8 -18 3 -23 1 -20 -9 4 -10 -1 -12 -17 -8 -18 5 -21 3 -16 -10 5 -12 0
-14 -20 -11 -18 3 -33 -2 -50 -17 -17 -17 -26 -20 -35 -11 -8 8 -16 8 -32 -1
-12 -6 -24 -12 -28 -13 -5 -1 -10 -2 -13 -3 -3 0 0 -11 6 -23 11 -20 10 -21
-3 -11 -8 7 -18 10 -21 6 -4 -3 -7 0 -7 7 0 7 -3 10 -6 7 -4 -4 -1 -13 5 -21
10 -12 8 -13 -11 -8 -20 5 -21 3 -10 -10 11 -14 9 -16 -18 -14 -20 1 -27 -1
-20 -8 6 -6 6 -14 -2 -23 -9 -11 -14 -11 -26 -1 -10 9 -13 9 -9 1 4 -6 1 -14
-5 -16 -10 -4 -9 -8 2 -17 13 -10 13 -11 -1 -7 -8 3 -21 -3 -27 -14 -7 -10
-18 -16 -26 -13 -8 3 -17 0 -22 -7 -4 -8 -3 -10 4 -5 7 4 12 2 12 -3 0 -6 -7
-11 -15 -11 -8 0 -15 -5 -15 -11 0 -5 5 -7 12 -3 7 5 8 3 3 -5 -5 -9 -10 -10
-18 -2 -6 6 -16 11 -22 11 -6 0 -7 -3 0 -8 6 -4 17 -16 25 -27 15 -20 14 -20
-8 -1 -12 11 -22 17 -23 15 0 -2 -2 -13 -4 -24 -9 -50 -13 -58 -36 -71 -15 -8
-18 -13 -9 -14 13 0 13 -2 0 -9 -8 -6 -17 -8 -21 -5 -9 5 -6 -17 5 -35 7 -11
5 -13 -9 -7 -18 7 -18 6 -1 -13 13 -14 14 -21 5 -27 -8 -4 -10 -3 -5 4 4 7 3
12 -2 12 -15 0 -21 -37 -8 -51 8 -9 8 -10 -1 -5 -9 5 -13 1 -13 -11 0 -11 -6
-25 -12 -32 -11 -11 -10 -13 5 -8 9 4 17 2 17 -3 0 -6 -5 -10 -12 -10 -6 0 -8
-3 -5 -7 4 -3 -1 -12 -11 -20 -14 -11 -14 -12 -1 -7 21 7 21 -38 0 -47 -8 -3
-15 -15 -16 -27 -1 -11 3 -18 8 -15 5 3 7 0 5 -8 -3 -8 -11 -13 -17 -11 -7 1
-10 -2 -6 -8 3 -6 10 -8 15 -5 5 3 12 0 16 -6 4 -8 3 -9 -4 -5 -12 7 -17 -11
-13 -43 2 -7 -2 -11 -7 -7 -12 7 -8 -32 5 -45 13 -13 6 -39 -9 -39 -7 0 -6 5
1 14 9 10 8 15 -2 19 -17 6 -16 -28 1 -45 15 -15 15 -28 1 -28 -5 0 -7 5 -4
10 3 6 1 10 -4 10 -16 0 -13 -16 4 -34 18 -18 19 -27 3 -23 -15 2 -19 -50 -6
-75 6 -12 3 -26 -6 -40 -16 -24 -11 -41 14 -51 12 -4 11 -6 -2 -6 -19 -1 -21
-8 -19 -56 0 -16 1 -38 2 -48 0 -11 5 -15 12 -10 7 4 5 -2 -3 -12 -9 -11 -10
-16 -3 -11 7 4 13 2 13 -3 0 -6 -7 -11 -15 -11 -8 0 -15 -5 -15 -11 0 -5 5 -7
12 -3 8 5 9 2 5 -9 -4 -10 -1 -17 5 -17 7 0 3 -7 -8 -15 -16 -12 -17 -16 -4
-24 8 -5 18 -7 24 -4 5 3 6 1 2 -6 -4 -6 -11 -9 -15 -7 -4 3 -6 -5 -5 -17 1
-12 3 -26 3 -30 1 -5 5 -6 9 -3 4 2 7 -19 5 -47 -2 -37 -1 -48 7 -37 5 8 10
10 10 5 0 -6 -5 -16 -12 -23 -9 -9 -9 -12 3 -12 12 0 12 -2 -1 -10 -13 -9 -13
-10 0 -10 13 0 13 -1 0 -10 -12 -8 -12 -10 5 -10 11 0 15 -4 10 -8 -11 -7 -16
-71 -6 -70 28 3 33 -3 15 -18 -17 -14 -17 -15 -1 -10 14 4 16 2 9 -12 -5 -9
-7 -23 -4 -31 3 -8 0 -11 -7 -7 -7 5 -8 1 -4 -10 4 -11 8 -13 11 -6 7 21 20
13 20 -13 0 -14 -5 -22 -11 -18 -6 4 -7 1 -3 -6 5 -7 15 -10 23 -7 8 3 11 1 8
-4 -3 -5 -1 -20 5 -32 11 -21 10 -21 -10 2 -18 21 -20 21 -11 4 6 -12 7 -24 4
-28 -3 -3 1 -6 10 -6 9 0 19 -5 23 -12 5 -8 2 -9 -11 -4 -16 6 -16 4 -4 -10 8
-10 13 -20 11 -23 -2 -3 2 -7 9 -10 7 -2 9 1 4 9 -6 9 -4 11 4 6 9 -6 9 -12
-3 -25 -21 -23 -20 -31 2 -31 14 0 15 2 2 10 -8 5 -10 10 -4 10 20 0 24 -13 8
-31 -15 -16 -14 -17 8 -13 20 5 21 4 5 -6 -14 -9 -16 -15 -7 -25 7 -8 8 -20 4
-26 -4 -7 -3 -9 3 -6 10 6 46 -36 49 -59 1 -8 -2 -14 -7 -14 -6 0 -7 -5 -4
-10 4 -6 10 -8 15 -5 5 3 12 0 16 -6 4 -7 3 -9 -4 -5 -6 4 -10 -1 -9 -13 1
-19 2 -19 21 -3 18 16 18 16 7 -5 -8 -15 -8 -23 -1 -23 5 0 10 -11 10 -25 0
-14 5 -25 10 -25 6 0 10 -7 10 -16 0 -9 10 -24 23 -35 19 -16 20 -20 7 -29
-12 -9 -10 -10 8 -5 22 6 32 -10 10 -17 -7 -3 -5 -7 6 -11 9 -4 15 -3 11 2 -3
5 -1 12 4 16 6 3 8 -5 5 -20 -3 -20 -1 -23 13 -18 16 6 16 5 4 -10 -12 -15
-11 -17 5 -18 11 -1 22 -1 25 -1 3 1 6 -6 6 -14 0 -10 -4 -11 -11 -4 -5 5 -15
10 -21 10 -5 0 2 -8 18 -18 15 -10 24 -21 21 -24 -3 -4 5 -5 18 -4 17 2 24 -2
24 -15 0 -13 -3 -15 -13 -7 -7 6 -13 8 -13 5 0 -11 73 -56 82 -51 5 3 7 2 6
-3 -1 -4 1 -18 6 -30 6 -20 10 -21 29 -11 20 10 21 10 8 -6 -12 -14 -12 -16 4
-9 14 5 17 3 12 -10 -3 -9 -1 -19 5 -23 7 -4 8 -3 4 4 -4 7 -3 12 3 12 5 0 14
-12 19 -27 7 -18 11 -22 11 -10 1 23 21 22 21 -2 0 -22 51 -46 77 -37 15 5 15
3 -2 -10 -19 -16 -19 -16 15 -10 28 5 32 4 20 -6 -9 -7 -13 -12 -11 -11 2 2
10 -2 18 -9 8 -6 13 -7 11 -2 -2 5 1 9 7 9 5 0 8 -7 7 -16 -2 -9 4 -19 13 -23
9 -3 13 -2 10 4 -3 6 -1 10 4 10 6 0 11 -5 11 -11 0 -8 5 -7 16 1 13 11 16 10
21 -8 3 -12 10 -22 15 -22 5 0 6 -5 2 -12 -4 -7 -3 -8 5 -4 6 4 9 11 6 16 -3
5 0 12 6 16 8 4 9 3 5 -4 -4 -7 -2 -12 4 -12 7 0 9 -7 6 -17 -4 -10 -4 -14 0
-10 4 4 13 2 20 -4 8 -7 14 -7 19 0 9 15 49 -24 41 -41 -4 -7 0 -3 9 9 16 21
45 22 45 1 0 -6 -8 -4 -17 3 -16 13 -17 12 -4 -3 17 -23 20 -23 31 4 l9 23 0
-22 c1 -26 11 -29 29 -11 16 16 16 -4 0 -22 -7 -8 -2 -6 11 5 14 11 22 15 18
10 -3 -6 -2 -17 4 -25 7 -12 9 -9 9 10 0 19 2 22 9 10 6 -8 7 -18 5 -22 -3 -5
-2 -8 3 -7 4 1 10 0 13 -1 22 -8 39 -7 34 3 -3 7 2 3 11 -8 14 -16 16 -17 13
-3 -2 9 2 16 7 15 6 -1 10 -7 10 -14 0 -6 4 -15 9 -20 5 -4 6 -3 2 5 -4 7 -1
12 8 12 9 0 16 5 16 12 0 6 3 8 6 5 4 -4 2 -13 -4 -20 -9 -11 -7 -13 11 -12
12 1 32 -5 45 -13 12 -8 23 -12 23 -8 1 3 2 10 3 15 0 5 5 13 10 18 5 5 6 3 2
-4 -4 -7 -2 -13 4 -13 6 0 9 -4 6 -9 -4 -5 2 -8 11 -6 10 1 26 -2 35 -7 14 -7
16 -5 11 9 -5 15 -3 16 8 6 7 -7 30 -13 52 -13 27 0 36 4 32 13 -4 6 3 1 14
-12 12 -13 21 -18 21 -12 0 6 5 11 11 11 5 0 7 -6 4 -12 -4 -7 1 -4 9 6 16 19
16 19 17 -5 1 -17 3 -19 6 -6 2 9 9 15 14 11 5 -3 7 -9 4 -14 -3 -4 3 -7 12
-5 10 2 22 4 26 4 5 1 5 7 1 14 -4 6 3 3 16 -8 18 -15 22 -16 18 -4 -4 9 -1
16 8 16 7 0 10 -5 7 -10 -4 -6 1 -8 11 -4 10 4 20 7 22 7 3 0 2 6 -2 13 -4 6
2 4 13 -6 23 -20 38 -23 27 -4 -5 8 -2 8 9 -2 14 -11 20 -11 32 -1 12 10 15 9
16 -6 0 -16 2 -16 9 4 5 12 15 22 22 21 10 0 10 -2 1 -6 -7 -2 -13 -8 -13 -12
0 -11 39 -11 46 1 4 7 2 8 -4 4 -8 -5 -10 -2 -6 8 7 19 20 21 30 4 4 -7 3 -8
-4 -4 -8 5 -10 1 -5 -9 4 -12 8 -13 13 -4 5 6 15 9 23 6 11 -4 14 -1 10 8 -3
8 -10 12 -16 8 -6 -3 -7 -1 -3 6 6 9 11 9 22 0 8 -6 14 -8 14 -3 0 5 5 2 10
-6 8 -13 10 -13 10 1 0 11 8 15 25 14 14 -2 23 1 19 6 -3 5 -10 6 -16 3 -6 -4
-8 -2 -5 4 4 5 16 8 27 5 11 -3 17 -10 13 -16 -4 -6 -1 -7 6 -3 7 5 10 14 7
21 -3 9 4 12 24 11 19 -1 26 2 23 11 -3 7 0 13 6 13 6 0 11 -4 11 -10 0 -17
14 -11 52 24 23 21 46 33 57 31 15 -3 18 1 14 18 -3 16 -2 18 5 9 14 -20 18
-19 44 6 14 12 28 19 33 15 4 -5 5 -2 1 5 -4 7 -11 10 -16 7 -5 -3 -11 -2 -14
3 -2 4 6 9 20 10 13 1 24 -3 24 -10 0 -6 3 -8 6 -5 4 4 1 13 -6 22 -11 13 -10
14 5 9 14 -6 16 -4 10 7 -7 11 -5 11 10 -1 15 -12 17 -12 10 -1 -6 11 -4 13
11 7 15 -6 17 -5 7 5 -17 17 -16 26 2 26 8 0 12 -4 9 -9 -3 -4 0 -8 5 -8 6 0
11 7 11 16 0 10 5 14 16 10 8 -3 12 -2 9 4 -3 6 -1 10 6 10 8 0 8 4 -1 15 -11
13 -10 14 3 9 9 -3 24 -1 34 6 16 9 15 10 -7 5 l-25 -6 23 14 c12 7 19 17 15
21 -4 5 2 4 14 -3 19 -10 21 -9 18 10 -4 18 -2 19 12 7 15 -12 15 -11 4 11 -8
15 -9 21 -2 17 6 -4 11 -2 11 3 0 6 5 11 11 11 5 0 7 -5 3 -12 -4 -7 -3 -8 5
-4 9 6 9 11 -1 24 -11 13 -11 14 8 4 16 -9 21 -8 21 3 0 8 -4 12 -8 9 -4 -2
-10 -1 -13 4 -3 5 1 9 9 10 8 1 21 3 29 4 8 1 12 9 9 22 -4 17 -3 18 6 6 9
-12 11 -11 11 8 0 12 5 22 10 22 6 0 10 5 10 11 0 5 -5 7 -12 3 -7 -5 -8 -3
-4 5 5 7 14 10 22 7 10 -4 14 2 14 20 0 19 4 25 15 20 13 -5 14 -2 4 15 -6 12
-7 19 -1 15 5 -3 16 2 23 11 10 12 10 14 2 9 -7 -4 -13 -2 -13 3 0 6 4 11 8
11 5 0 9 7 9 15 0 8 -5 15 -10 15 -6 0 -7 3 -3 7 4 4 16 -3 26 -17 l19 -25
-13 40 c-15 43 -13 57 8 49 8 -3 17 0 22 7 4 7 3 10 -3 6 -6 -4 -14 0 -17 8
-4 10 2 19 17 25 18 7 19 9 4 9 -10 1 -15 6 -12 11 4 6 11 7 17 4 6 -4 8 1 3
16 -4 13 -3 20 2 17 5 -4 10 0 10 8 0 8 -4 12 -8 9 -4 -2 -11 1 -15 7 -4 8 -3
9 4 5 7 -4 12 -2 12 5 0 8 5 8 18 -2 9 -7 6 -1 -8 14 -16 19 -19 26 -8 22 9
-4 19 -1 24 6 4 8 3 10 -4 5 -7 -4 -12 -1 -12 8 0 9 5 16 10 16 6 0 10 5 10
11 0 6 -7 8 -16 5 -14 -5 -15 -4 -4 9 7 8 9 15 4 15 -5 0 2 9 15 19 18 14 21
20 11 26 -8 5 -11 4 -7 -2 3 -5 0 -10 -8 -10 -8 0 -11 5 -7 11 4 6 7 13 8 16
7 36 18 59 27 53 6 -3 7 -1 3 6 -4 6 -13 8 -19 4 -7 -3 -3 4 8 18 15 18 16 20
3 10 -20 -15 -25 -2 -6 17 7 7 8 12 2 12 -6 0 -10 11 -10 24 0 17 4 22 15 18
10 -4 12 -1 6 7 -4 8 -2 17 6 23 11 8 10 9 -3 4 -23 -7 -23 8 0 30 16 17 16
18 0 11 -12 -4 -18 -2 -18 9 0 8 4 12 10 9 6 -4 7 1 3 11 -5 13 -3 15 8 9 12
-8 12 -6 0 8 -14 18 -26 23 -16 8 3 -5 2 -12 -3 -15 -4 -2 -8 6 -8 19 0 14 5
21 12 18 7 -2 15 1 20 8 4 7 3 10 -3 6 -6 -4 -16 0 -23 8 -11 13 -10 14 3 10
8 -4 18 -1 23 6 4 8 3 10 -4 5 -7 -4 -12 -1 -12 8 0 9 5 16 11 16 8 0 9 4 0
13 -6 8 -7 18 -3 22 4 5 2 5 -5 1 -7 -4 -10 -13 -6 -21 3 -8 1 -15 -4 -15 -4
0 -8 22 -8 49 0 27 3 47 7 44 5 -2 7 14 6 36 -1 26 -5 38 -12 34 -6 -4 -2 4 9
17 11 13 14 20 6 15 -11 -6 -13 -4 -8 8 3 9 1 18 -6 21 -7 2 -1 5 13 6 21 1
22 3 7 9 -10 4 -19 11 -20 16 -1 6 -6 9 -10 7 -5 -1 -6 2 -2 8 3 6 9 8 13 6 4
-2 13 3 21 11 12 13 11 14 -8 8 -19 -6 -20 -4 -12 17 6 15 5 31 -1 42 -8 14
-7 17 1 12 6 -4 11 -2 11 3 0 6 -6 11 -12 11 -9 0 -8 4 2 10 13 8 13 10 1 10
-12 0 -12 3 -3 12 15 15 15 28 1 28 -5 0 -7 -4 -4 -10 3 -6 -1 -7 -10 -3 -9 3
-13 9 -8 12 5 3 10 30 11 58 0 39 -4 56 -16 64 -16 10 -16 10 0 5 11 -3 16 1
15 13 -1 21 -27 49 -27 30 0 -7 -3 -10 -6 -6 -3 3 -3 11 1 17 5 8 11 8 21 -1
12 -10 13 -9 8 5 -3 9 -10 16 -15 16 -5 0 -9 4 -9 10 0 5 8 7 18 4 16 -5 16
-5 -1 6 -9 6 -23 8 -30 4 -9 -6 -9 -5 0 7 10 12 10 18 0 29 -9 10 -9 11 1 6
17 -10 15 4 -5 27 -10 11 -13 17 -6 14 6 -4 15 -2 19 4 4 7 3 9 -3 6 -6 -4
-19 1 -29 9 -10 9 -13 13 -6 9 6 -3 12 -2 12 2 0 5 -6 15 -12 22 -7 8 -8 11
-3 8 6 -3 11 3 11 13 0 12 -4 16 -11 10 -7 -6 -11 -2 -12 11 -1 11 2 17 7 14
6 -3 7 1 3 10 -5 13 -7 14 -14 3 -6 -9 -9 -4 -9 15 0 16 -4 26 -10 22 -8 -5
-15 30 -11 57 0 4 -5 5 -13 2 -8 -3 -17 0 -22 7 -4 8 -3 10 4 5 7 -4 12 -1 12
8 0 15 -12 21 -33 17 -5 -1 -6 3 -2 8 3 6 13 8 23 5 9 -3 6 2 -8 10 -16 10
-19 15 -10 16 13 0 13 1 0 10 -8 5 -11 10 -7 10 4 0 2 10 -5 23 -7 12 -11 26
-10 30 1 4 -6 3 -16 -2 -16 -9 -19 -7 -18 12 1 12 8 21 15 19 7 -1 10 2 6 8
-3 6 -10 8 -15 5 -5 -3 -14 4 -20 15 -6 11 -8 20 -4 20 3 0 1 7 -6 15 -7 8
-18 15 -24 15 -6 0 -4 -5 4 -10 8 -5 10 -10 4 -10 -6 0 -18 8 -25 17 -10 11
-10 14 -1 9 6 -4 12 -2 12 3 0 6 -3 11 -7 11 -5 0 -19 10 -33 21 -14 11 -20
18 -13 15 6 -4 15 -1 19 5 4 7 3 9 -3 6 -6 -4 -19 1 -29 9 -10 9 -14 13 -8 10
6 -3 11 1 11 8 0 8 -8 11 -19 8 -10 -2 -24 1 -31 7 -8 6 -18 7 -22 3 -5 -4 -5
-1 -1 6 6 9 11 10 20 3 9 -8 13 -7 13 2 0 8 -6 14 -14 15 -7 1 -20 3 -28 4 -8
1 -15 6 -15 12 0 6 -5 4 -11 -4 -9 -13 -10 -13 -8 0 3 31 -1 38 -21 33 -12 -3
-20 0 -20 6 0 7 5 9 13 5 9 -6 9 -4 -1 8 -13 16 -28 18 -47 6 -13 -8 -49 18
-42 29 3 5 -3 9 -13 9 -10 0 -16 -6 -13 -13 3 -7 2 -13 -1 -13 -4 0 -12 14
-18 31 -6 17 -13 27 -17 21 -6 -10 -61 -14 -61 -4 0 2 8 11 18 19 13 10 9 10
-15 -1 -20 -10 -34 -12 -38 -6 -3 6 -11 10 -17 10 -6 0 -5 -7 3 -17 13 -15 12
-15 -11 -1 -14 9 -33 14 -43 13 -9 -2 -15 1 -11 6 3 5 10 7 15 4 5 -4 9 -4 9
-1 0 3 -10 10 -21 17 -15 8 -19 8 -15 0 4 -6 2 -11 -3 -11 -6 0 -11 4 -11 9 0
4 -12 8 -27 9 -16 0 -30 1 -33 2 -22 8 -40 6 -41 -3 -1 -7 -5 -1 -9 13 -6 20
-8 21 -9 6 -1 -20 -1 -20 -17 0 -8 10 -13 12 -9 4 5 -12 3 -11 -7 1 -11 13
-16 14 -25 4 -7 -7 -9 -16 -5 -21 4 -4 2 -4 -5 0 -7 4 -9 14 -6 24 6 15 5 15
-10 3 -9 -7 -17 -9 -17 -3 0 5 -7 13 -16 16 -13 5 -14 3 -6 -7 8 -10 6 -13 -9
-13 -14 0 -18 5 -13 21 6 17 4 17 -16 -5 l-23 -25 6 25 c5 21 4 22 -6 10 -7
-9 -19 -15 -27 -15 -8 1 -22 -4 -30 -9 -13 -9 -13 -9 -2 6 11 14 10 18 -10 29
-21 11 -22 11 -10 -4 11 -13 10 -15 -10 -10 -18 4 -20 3 -8 -6 13 -9 13 -11
-2 -11 -16 0 -23 11 -19 33 0 4 -3 7 -9 7 -5 0 -10 -8 -10 -17 -1 -16 -2 -16
-10 -2 -6 11 -18 15 -35 12 -13 -3 -23 -8 -21 -12 3 -4 -5 -7 -17 -8 -12 0
-16 1 -9 4 6 3 12 9 12 15 0 6 -12 3 -26 -7 -15 -9 -24 -13 -21 -8 3 5 -3 15
-15 22 -11 7 -17 8 -13 2 4 -7 -5 -11 -25 -11 -22 0 -29 -4 -24 -12 5 -10 3
-10 -7 0 -12 11 -12 14 1 22 11 7 11 10 2 10 -7 0 -17 -10 -22 -22 -7 -18 -9
-19 -9 -5 -1 9 -6 17 -12 17 -5 0 -7 -5 -3 -11 4 -7 -2 -6 -17 2 -23 12 -23
11 -10 -7 14 -18 14 -18 -3 -3 -13 13 -26 15 -46 9 -23 -7 -28 -5 -23 7 5 13
1 12 -31 -1 -20 -8 -36 -11 -36 -6 0 4 6 11 13 13 7 4 8 6 1 6 -6 1 -17 -6
-24 -14 -7 -8 -18 -15 -24 -15 -6 0 -4 5 4 10 13 8 13 11 1 22 -10 10 -12 10
-7 1z m436 -33 c0 -5 -5 -10 -11 -10 -5 0 -7 5 -4 10 3 6 8 10 11 10 2 0 4 -4
4 -10z m-1057 -95 c-3 -9 -8 -13 -11 -11 -3 3 -11 1 -18 -5 -9 -7 -14 -6 -20
3 -4 7 -4 10 1 6 4 -4 17 -1 29 7 26 19 27 19 19 0z m1857 -71 c0 -8 -19 -13
-24 -6 -3 5 1 9 9 9 8 0 15 -2 15 -3z m256 -280 c1 -9 0 -13 -4 -10 -3 4 -7
14 -8 22 -1 9 0 13 4 10 3 -4 7 -14 8 -22z m-2461 -14 c-3 -5 -11 -10 -16 -10
-6 0 -7 5 -4 10 3 6 11 10 16 10 6 0 7 -4 4 -10z m-60 -278 c-3 -3 -11 0 -18
7 -9 10 -8 11 6 5 10 -3 15 -9 12 -12z m-28 -297 c0 -8 -4 -12 -9 -9 -5 3 -6
10 -3 15 9 13 12 11 12 -6z m-7 -165 c0 -5 -5 -10 -11 -10 -5 0 -7 5 -4 10 3
6 8 10 11 10 2 0 4 -4 4 -10z m-4 -40 c0 -12 -4 -16 -9 -11 -5 5 -6 14 -3 20
10 15 12 14 12 -9z m2799 -29 c3 -5 2 -12 -3 -15 -5 -3 -9 1 -9 9 0 17 3 19
12 6z m-2738 -496 c0 -8 -4 -12 -9 -9 -5 3 -6 10 -3 15 9 13 12 11 12 -6z m83
-295 c0 -5 -2 -10 -4 -10 -3 0 -8 5 -11 10 -3 6 -1 10 4 10 6 0 11 -4 11 -10z
m17 -25 c0 -8 -4 -12 -9 -9 -5 3 -6 10 -3 15 9 13 12 11 12 -6z m287 -461 c3
-8 2 -12 -4 -9 -6 3 -10 10 -10 16 0 14 7 11 14 -7z m196 -159 c11 -13 10 -14
-4 -9 -9 3 -16 10 -16 15 0 13 6 11 20 -6z m140 -69 c0 -2 -7 -7 -16 -10 -8
-3 -12 -2 -9 4 6 10 25 14 25 6z m1489 -53 c-6 -7 -15 -10 -20 -7 -13 8 -3 21
15 21 12 0 13 -4 5 -14z m-1372 -18 c0 -8 -4 -12 -9 -9 -4 3 -8 9 -8 15 0 5 4
9 8 9 5 0 9 -7 9 -15z m57 -21 c3 -8 2 -12 -4 -9 -6 3 -10 10 -10 16 0 14 7
11 14 -7z m182 -60 c1 -9 0 -13 -4 -10 -3 4 -7 14 -8 22 -1 9 0 13 4 10 3 -4
7 -14 8 -22z m994 22 c0 -3 -4 -8 -10 -11 -5 -3 -10 -1 -10 4 0 6 5 11 10 11
6 0 10 -2 10 -4z m-830 -56 c8 -15 8 -18 -3 -14 -8 3 -14 11 -14 19 0 20 4 19
17 -5z m73 -3 c3 -8 -1 -14 -8 -14 -7 0 -11 6 -8 14 3 7 6 13 8 13 2 0 5 -6 8
-13z m64 -2 c0 -8 -4 -12 -9 -9 -5 3 -6 10 -3 15 9 13 12 11 12 -6z"/>
<path d="M1376 3498 c3 -4 11 -5 19 -1 21 7 19 12 -4 10 -11 0 -18 -5 -15 -9z"/>
<path d="M2070 3479 c0 -5 5 -7 10 -4 6 3 10 8 10 11 0 2 -4 4 -10 4 -5 0 -10
-5 -10 -11z"/>
<path d="M915 3410 c-3 -5 -2 -10 4 -10 5 0 13 5 16 10 3 6 2 10 -4 10 -5 0
-13 -4 -16 -10z"/>
<path d="M2470 3410 c0 -5 5 -10 11 -10 5 0 7 5 4 10 -3 6 -8 10 -11 10 -2 0
-4 -4 -4 -10z"/>
<path d="M2695 3330 c3 -5 8 -10 11 -10 2 0 4 5 4 10 0 6 -5 10 -11 10 -5 0
-7 -4 -4 -10z"/>
<path d="M730 3289 c0 -5 5 -7 10 -4 6 3 10 8 10 11 0 2 -4 4 -10 4 -5 0 -10
-5 -10 -11z"/>
<path d="M675 3260 c-3 -5 -1 -10 4 -10 6 0 11 5 11 10 0 6 -2 10 -4 10 -3 0
-8 -4 -11 -10z"/>
<path d="M555 3101 c-3 -5 -2 -12 3 -15 5 -3 9 1 9 9 0 17 -3 19 -12 6z"/>
<path d="M456 2788 c3 -5 10 -6 15 -3 13 9 11 12 -6 12 -8 0 -12 -4 -9 -9z"/>
<path d="M421 2393 c7 -12 15 -20 18 -17 3 2 -3 12 -13 22 -17 16 -18 16 -5
-5z"/>
<path d="M3255 2360 c-3 -5 -1 -10 4 -10 6 0 11 5 11 10 0 6 -2 10 -4 10 -3 0
-8 -4 -11 -10z"/>
<path d="M3268 1943 c7 -3 16 -2 19 1 4 3 -2 6 -13 5 -11 0 -14 -3 -6 -6z"/>
<path d="M3260 1656 c0 -2 8 -10 18 -17 15 -13 16 -12 3 4 -13 16 -21 21 -21
13z"/>
<path d="M3255 1520 c-3 -6 1 -7 9 -4 18 7 21 14 7 14 -6 0 -13 -4 -16 -10z"/>
<path d="M596 1345 c4 -8 11 -15 16 -15 6 0 5 6 -2 15 -7 8 -14 15 -16 15 -2
0 -1 -7 2 -15z"/>
<path d="M3176 1187 c3 -10 9 -15 12 -12 3 3 0 11 -7 18 -10 9 -11 8 -5 -6z"/>
<path d="M1251 664 c0 -11 3 -14 6 -6 3 7 2 16 -1 19 -3 4 -6 -2 -5 -13z"/>
<path d="M1935 480 c-3 -5 -1 -10 4 -10 6 0 11 5 11 10 0 6 -2 10 -4 10 -3 0
-8 -4 -11 -10z"/>
<path d="M2157 473 c-4 -3 -7 -11 -7 -17 0 -6 5 -5 12 2 6 6 9 14 7 17 -3 3
-9 2 -12 -2z"/>
</g>
</svg>
